<svg xmlns="http://www.w3.org/2000/svg" width="616" height="270" viewBox="0 0 616 270" role="img" aria-label="Indexing: X[1] picks a row, X[:, 0] picks a column, X[0, 2] picks one element">
<title>Indexing: X[1] picks a row, X[:, 0] picks a column, X[0, 2] picks one element</title>
<style>
.bg { fill: #ffffff; stroke: #e2e0da; }
text { font-family: ui-sans-serif, system-ui, -apple-system, "Segoe UI", sans-serif; fill: #1f1f1d; white-space: pre; }
.mono { font-family: ui-monospace, SFMono-Regular, Consolas, monospace; }
.muted { fill: #6b6a65; }
.title { font-weight: 600; }
.cellline { stroke: #9a9993; }
.arrow { stroke: #77766f; stroke-width: 1.6; fill: none; }
.ah { fill: #77766f; }
@media (prefers-color-scheme: dark) {
  .bg { fill: #1f1f1e; stroke: #353532; }
  text { fill: #ecebe6; }
  .muted { fill: #a3a29a; }
  .cellline { stroke: #6d6c66; }
  .arrow { stroke: #a3a29a; }
  .ah { fill: #a3a29a; }
}
</style>
<defs><marker id="ah" viewBox="0 0 10 10" refX="9" refY="5" markerWidth="7" markerHeight="7" orient="auto-start-reverse"><path d="M0,0 L10,5 L0,10 z" class="ah"/></marker></defs>
<rect class="bg" x="0.5" y="0.5" width="615" height="269" rx="8"/>
<text x="30.0" y="26.0" font-size="15" text-anchor="start" class="mono title">X[1]</text>
<text x="30.0" y="44.0" font-size="12" text-anchor="start" class="muted">row 1</text>
<rect x="31" y="63" width="40" height="40" rx="3" fill="none" fill-opacity="0" class="cellline" stroke-width="1.3" opacity="0.3"/>
<text x="51.0" y="88.2" font-size="15" text-anchor="middle" class="mono" opacity="0.3">1</text>
<rect x="73" y="63" width="40" height="40" rx="3" fill="none" fill-opacity="0" class="cellline" stroke-width="1.3" opacity="0.3"/>
<text x="93.0" y="88.2" font-size="15" text-anchor="middle" class="mono" opacity="0.3">2</text>
<rect x="115" y="63" width="40" height="40" rx="3" fill="none" fill-opacity="0" class="cellline" stroke-width="1.3" opacity="0.3"/>
<text x="135.0" y="88.2" font-size="15" text-anchor="middle" class="mono" opacity="0.3">3</text>
<rect x="31" y="105" width="40" height="40" rx="3" fill="#4c6ef5" fill-opacity="0.24" stroke="#4c6ef5" stroke-width="1.3" opacity="1"/>
<text x="51.0" y="130.2" font-size="15" text-anchor="middle" class="mono" opacity="1">4</text>
<rect x="73" y="105" width="40" height="40" rx="3" fill="#4c6ef5" fill-opacity="0.24" stroke="#4c6ef5" stroke-width="1.3" opacity="1"/>
<text x="93.0" y="130.2" font-size="15" text-anchor="middle" class="mono" opacity="1">5</text>
<rect x="115" y="105" width="40" height="40" rx="3" fill="#4c6ef5" fill-opacity="0.24" stroke="#4c6ef5" stroke-width="1.3" opacity="1"/>
<text x="135.0" y="130.2" font-size="15" text-anchor="middle" class="mono" opacity="1">6</text>
<line x1="93.0" y1="152.0" x2="93.0" y2="182.0" class="arrow" marker-end="url(#ah)"/>
<rect x="31.0" y="189" width="40" height="40" rx="3" fill="#4c6ef5" fill-opacity="0.24" stroke="#4c6ef5" stroke-width="1.3" opacity="1"/>
<text x="51.0" y="214.2" font-size="15" text-anchor="middle" class="mono" opacity="1">4</text>
<rect x="73.0" y="189" width="40" height="40" rx="3" fill="#4c6ef5" fill-opacity="0.24" stroke="#4c6ef5" stroke-width="1.3" opacity="1"/>
<text x="93.0" y="214.2" font-size="15" text-anchor="middle" class="mono" opacity="1">5</text>
<rect x="115.0" y="189" width="40" height="40" rx="3" fill="#4c6ef5" fill-opacity="0.24" stroke="#4c6ef5" stroke-width="1.3" opacity="1"/>
<text x="135.0" y="214.2" font-size="15" text-anchor="middle" class="mono" opacity="1">6</text>
<text x="93.0" y="248.0" font-size="12" text-anchor="middle" class="muted">result shape (3,)</text>
<text x="250.0" y="26.0" font-size="15" text-anchor="start" class="mono title">X[:, 0]</text>
<text x="250.0" y="44.0" font-size="12" text-anchor="start" class="muted">every row, column 0</text>
<rect x="251" y="63" width="40" height="40" rx="3" fill="#f08c00" fill-opacity="0.24" stroke="#f08c00" stroke-width="1.3" opacity="1"/>
<text x="271.0" y="88.2" font-size="15" text-anchor="middle" class="mono" opacity="1">1</text>
<rect x="293" y="63" width="40" height="40" rx="3" fill="none" fill-opacity="0" class="cellline" stroke-width="1.3" opacity="0.3"/>
<text x="313.0" y="88.2" font-size="15" text-anchor="middle" class="mono" opacity="0.3">2</text>
<rect x="335" y="63" width="40" height="40" rx="3" fill="none" fill-opacity="0" class="cellline" stroke-width="1.3" opacity="0.3"/>
<text x="355.0" y="88.2" font-size="15" text-anchor="middle" class="mono" opacity="0.3">3</text>
<rect x="251" y="105" width="40" height="40" rx="3" fill="#f08c00" fill-opacity="0.24" stroke="#f08c00" stroke-width="1.3" opacity="1"/>
<text x="271.0" y="130.2" font-size="15" text-anchor="middle" class="mono" opacity="1">4</text>
<rect x="293" y="105" width="40" height="40" rx="3" fill="none" fill-opacity="0" class="cellline" stroke-width="1.3" opacity="0.3"/>
<text x="313.0" y="130.2" font-size="15" text-anchor="middle" class="mono" opacity="0.3">5</text>
<rect x="335" y="105" width="40" height="40" rx="3" fill="none" fill-opacity="0" class="cellline" stroke-width="1.3" opacity="0.3"/>
<text x="355.0" y="130.2" font-size="15" text-anchor="middle" class="mono" opacity="0.3">6</text>
<line x1="313.0" y1="152.0" x2="313.0" y2="182.0" class="arrow" marker-end="url(#ah)"/>
<rect x="272.0" y="189" width="40" height="40" rx="3" fill="#f08c00" fill-opacity="0.24" stroke="#f08c00" stroke-width="1.3" opacity="1"/>
<text x="292.0" y="214.2" font-size="15" text-anchor="middle" class="mono" opacity="1">1</text>
<rect x="314.0" y="189" width="40" height="40" rx="3" fill="#f08c00" fill-opacity="0.24" stroke="#f08c00" stroke-width="1.3" opacity="1"/>
<text x="334.0" y="214.2" font-size="15" text-anchor="middle" class="mono" opacity="1">4</text>
<text x="313.0" y="248.0" font-size="12" text-anchor="middle" class="muted">shape (2,): comes out flat</text>
<text x="470.0" y="26.0" font-size="15" text-anchor="start" class="mono title">X[0, 2]</text>
<text x="470.0" y="44.0" font-size="12" text-anchor="start" class="muted">row 0, column 2</text>
<rect x="471" y="63" width="40" height="40" rx="3" fill="none" fill-opacity="0" class="cellline" stroke-width="1.3" opacity="0.3"/>
<text x="491.0" y="88.2" font-size="15" text-anchor="middle" class="mono" opacity="0.3">1</text>
<rect x="513" y="63" width="40" height="40" rx="3" fill="none" fill-opacity="0" class="cellline" stroke-width="1.3" opacity="0.3"/>
<text x="533.0" y="88.2" font-size="15" text-anchor="middle" class="mono" opacity="0.3">2</text>
<rect x="555" y="63" width="40" height="40" rx="3" fill="#2f9e44" fill-opacity="0.24" stroke="#2f9e44" stroke-width="1.3" opacity="1"/>
<text x="575.0" y="88.2" font-size="15" text-anchor="middle" class="mono" opacity="1">3</text>
<rect x="471" y="105" width="40" height="40" rx="3" fill="none" fill-opacity="0" class="cellline" stroke-width="1.3" opacity="0.3"/>
<text x="491.0" y="130.2" font-size="15" text-anchor="middle" class="mono" opacity="0.3">4</text>
<rect x="513" y="105" width="40" height="40" rx="3" fill="none" fill-opacity="0" class="cellline" stroke-width="1.3" opacity="0.3"/>
<text x="533.0" y="130.2" font-size="15" text-anchor="middle" class="mono" opacity="0.3">5</text>
<rect x="555" y="105" width="40" height="40" rx="3" fill="none" fill-opacity="0" class="cellline" stroke-width="1.3" opacity="0.3"/>
<text x="575.0" y="130.2" font-size="15" text-anchor="middle" class="mono" opacity="0.3">6</text>
<line x1="533.0" y1="152.0" x2="533.0" y2="182.0" class="arrow" marker-end="url(#ah)"/>
<rect x="513.0" y="189" width="40" height="40" rx="3" fill="#2f9e44" fill-opacity="0.24" stroke="#2f9e44" stroke-width="1.3" opacity="1"/>
<text x="533.0" y="214.2" font-size="15" text-anchor="middle" class="mono" opacity="1">3</text>
<text x="533.0" y="248.0" font-size="12" text-anchor="middle" class="muted">a single number</text>
</svg>
